HIERARCHY
ROOT root
{
	OFFSET	0	13.1	24.9
	CHANNELS 6  Xposition Yposition Zposition Xrotation Yrotation Zrotation
	JOINT spine_1
	{
		OFFSET	0	9.99999	0
		CHANNELS 3  Xrotation Yrotation Zrotation
		JOINT spine_2
		{
			OFFSET	0	112	-10
			CHANNELS 3  Xrotation Yrotation Zrotation
			JOINT spine_3
			{
				OFFSET	0	206.5	19.3
				CHANNELS 3  Xrotation Yrotation Zrotation
				JOINT spine_4
				{
					OFFSET	0	110.4	14.6
					CHANNELS 3  Xrotation Yrotation Zrotation
					JOINT neck_1
					{
						OFFSET	0	71.8	-50.3
						CHANNELS 3  Xrotation Yrotation Zrotation
						JOINT neck_2
						{
							OFFSET	0	86.2	-25.8
							CHANNELS 3  Xrotation Yrotation Zrotation
							JOINT head_ee
							{
								OFFSET	0	179.8	-8.7
								CHANNELS 3  Xrotation Yrotation Zrotation
								End Site
								{
									OFFSET	1	0	0
								}
							}
						}
					}
					JOINT left_clavicle
					{
						OFFSET	-43.2	22.4	-70.8
						CHANNELS 3  Xrotation Yrotation Zrotation
						JOINT left_shoulder
						{
							OFFSET	-93.9	-5.79999	48.7
							CHANNELS 3  Xrotation Yrotation Zrotation
							JOINT left_elbow
							{
								OFFSET	-291.4	-30.8	15.2
								CHANNELS 3  Xrotation Yrotation Zrotation
								JOINT left_lowarm_twist
								{
									OFFSET	-110.7	-3.89999	13.6
									CHANNELS 3  Xrotation Yrotation Zrotation
									JOINT left_hand
									{
										OFFSET	-110.7	-3.89999	13.6
										CHANNELS 3  Xrotation Yrotation Zrotation
										JOINT left_ee
										{
											OFFSET	-80.8	-5.10001	12.1
											CHANNELS 3  Xrotation Yrotation Zrotation
											End Site
											{
												OFFSET	1	0	0
											}
										}
									}
								}
							}
						}
					}
					JOINT right_clavicle
					{
						OFFSET	43.2	22.4	-70.8
						CHANNELS 3  Xrotation Yrotation Zrotation
						JOINT right_shoulder
						{
							OFFSET	93.9	-5.79999	48.7
							CHANNELS 3  Xrotation Yrotation Zrotation
							JOINT right_elbow
							{
								OFFSET	291.4	-30.8	15.2
								CHANNELS 3  Xrotation Yrotation Zrotation
								JOINT right_lowarm_twist
								{
									OFFSET	110.7	-3.89999	13.6
									CHANNELS 3  Xrotation Yrotation Zrotation
									JOINT right_hand
									{
										OFFSET	110.7	-3.89999	13.6
										CHANNELS 3  Xrotation Yrotation Zrotation
										JOINT right_ee
										{
											OFFSET	80.8	-5.10001	12.1
											CHANNELS 3  Xrotation Yrotation Zrotation
											End Site
											{
												OFFSET	1	0	0
											}
										}
									}
								}
							}
						}
					}
				}
			}
		}
	}
	JOINT left_hip
	{
		OFFSET	-82.8	-127.5	0.300001
		CHANNELS 3  Xrotation Yrotation Zrotation
		JOINT left_knee
		{
			OFFSET	-28.2	-396.7	2.2
			CHANNELS 3  Xrotation Yrotation Zrotation
			JOINT left_ankle
			{
				OFFSET	-11.7	-411.3	35.4
				CHANNELS 3  Xrotation Yrotation Zrotation
				JOINT left_toes
				{
					OFFSET	0	-60	-88.6
					CHANNELS 3  Xrotation Yrotation Zrotation
					JOINT left_foot_ee
					{
						OFFSET	-22.5	-16.5	-42.2
						CHANNELS 3  Xrotation Yrotation Zrotation
						End Site
						{
							OFFSET	1	0	0
						}
					}
				}
			}
		}
	}
	JOINT right_hip
	{
		OFFSET	82.8	-127.5	0.300001
		CHANNELS 3  Xrotation Yrotation Zrotation
		JOINT right_knee
		{
			OFFSET	28.2	-396.7	2.2
			CHANNELS 3  Xrotation Yrotation Zrotation
			JOINT right_ankle
			{
				OFFSET	11.7	-411.3	35.4
				CHANNELS 3  Xrotation Yrotation Zrotation
				JOINT right_toes
				{
					OFFSET	0	-60	-88.6
					CHANNELS 3  Xrotation Yrotation Zrotation
					JOINT right_foot_ee
					{
						OFFSET	22.5	-16.5	-42.2
						CHANNELS 3  Xrotation Yrotation Zrotation
						End Site
						{
							OFFSET	1	0	0
						}
					}
				}
			}
		}
	}
}
MOTION
Frames: 8
Frame Time: 0.02
924.259064098 765.871 -1435.78867839 154.383299267 73.0169175571 -151.975631253 -1.49968 0.786014 -1.78699 -1.49835 0.898115 -1.73337 -1.52561 1.2824 -1.47199 -1.52715 1.03387 -1.65601 -18.3205 13.6421 5.1274 -18.9623 23.5237 10.2528 -0.0 0.0 -0.0 3.39182 26.5568 7.39384 -16.2782 -24.4151 65.1339 0.289812 -8.16999 0.0206978 -44.0618 -3.39312 4.33688 0.0988007 18.8766 8.24416 -0.0 0.0 -0.0 12.6926 2.02564 -25.5229 10.0709 39.9462 -59.0818 0.580191 16.0353 -0.0817236 -82.8137 8.17758 -5.23302 0.0978298 -28.985 -11.8768 0.0 0.0 0.0 14.332 -10.0066 -12.0467 -59.6723 -2.16471 8.48925 2.73024 -12.0002 -0.423064 -2.8143 0.0 0.0 -0.0 0.0 -0.0 10.7756 18.1555 -16.1122 -35.7844 0.220583 -5.39915 42.036 -23.8371 5.32067 -33.6063 0.0 0.0 0.0 0.0 0.0 
923.833916999 765.871 -1440.95785851 153.412953029 73.6106042039 -150.962644762 -1.49968 0.786014 -1.78699 -1.49835 0.898115 -1.73337 -1.52561 1.2824 -1.47199 -1.52715 1.03387 -1.65601 -18.3205 13.6421 5.1274 -18.9623 23.5237 10.2528 -0.0 0.0 -0.0 3.39182 26.5568 7.39384 -16.2782 -24.4151 65.1339 0.289812 -8.16999 0.0206978 -44.0618 -3.39312 4.33688 0.0988007 18.8766 8.24416 -0.0 0.0 -0.0 12.6926 2.02564 -25.5229 10.0709 39.9462 -59.0818 0.580191 16.0353 -0.0817236 -82.8137 8.17758 -5.23302 0.0978298 -28.985 -11.8768 0.0 0.0 0.0 14.332 -10.0066 -12.0467 -59.6723 -2.16471 8.48925 2.73024 -12.0002 -0.423064 -2.8143 0.0 0.0 -0.0 0.0 -0.0 10.7756 18.1555 -16.1122 -35.7844 0.220583 -5.39915 42.036 -23.8371 5.32067 -33.6063 0.0 0.0 0.0 0.0 0.0 
923.941571606 765.871 -1439.57750006 153.678893144 73.4526087146 -151.239961137 -1.49968 0.786014 -1.78699 -1.49835 0.898115 -1.73337 -1.52561 1.2824 -1.47199 -1.52715 1.03387 -1.65601 -18.3205 13.6421 5.1274 -18.9623 23.5237 10.2528 -0.0 0.0 -0.0 3.39182 26.5568 7.39384 -16.2782 -24.4151 65.1339 0.289812 -8.16999 0.0206978 -44.0618 -3.39312 4.33688 0.0988007 18.8766 8.24416 -0.0 0.0 -0.0 12.6926 2.02564 -25.5229 10.0709 39.9462 -59.0818 0.580191 16.0353 -0.0817236 -82.8137 8.17758 -5.23302 0.0978298 -28.985 -11.8768 0.0 0.0 0.0 14.332 -10.0066 -12.0467 -59.6723 -2.16471 8.48925 2.73024 -12.0002 -0.423064 -2.8143 0.0 0.0 -0.0 0.0 -0.0 10.7756 18.1555 -16.1122 -35.7844 0.220583 -5.39915 42.036 -23.8371 5.32067 -33.6063 0.0 0.0 0.0 0.0 0.0 
915.589201424 767.141 -1415.93082255 157.669973375 71.5640484859 -155.047201419 -1.29053 0.884963 -1.93636 -1.28901 1.00636 -1.87616 -1.32216 1.41578 -1.59011 -1.32385 1.14692 -1.7937 -20.8892 11.8653 5.37024 -21.452 20.2576 10.2438 -0.0 0.0 -0.0 3.39255 26.5463 7.39474 -17.7572 -23.329 65.8574 0.245358 -6.93009 0.0148565 -43.9462 -3.38028 4.32946 0.0849279 19.8426 8.52401 -0.0 0.0 -0.0 12.896 3.6102 -26.0836 11.8407 39.5314 -58.3381 0.483812 13.4779 -0.0571685 -82.4203 8.128 -5.24061 -0.26304 -29.213 -9.98148 0.0 0.0 0.0 16.7493 -8.69252 -13.5741 -55.4329 -1.72752 8.0034 9.98174 -2.70388 -1.44346 -4.63118 0.0 0.0 -0.0 0.0 -0.0 8.91112 16.1598 -15.6108 -33.6589 0.113377 -5.09073 42.4219 -23.5131 5.34523 -34.1075 0.0 0.0 0.0 0.0 0.0 
903.101640316 767.209 -1412.24714116 160.341400917 71.9991087537 -157.236692092 -0.911252 0.951644 -2.10736 -0.909434 1.08378 -2.04257 -0.948322 1.51859 -1.74378 -0.950475 1.22419 -1.96166 -21.9189 10.7087 5.81896 -22.3582 17.9171 10.3031 -0.0 0.0 -0.0 3.41097 26.523 7.4185 -19.7977 -22.2674 66.1022 0.184193 -5.21357 0.00838597 -43.8515 -3.36977 4.32335 0.0926972 20.407 8.78187 -0.0 0.0 -0.0 13.0514 4.39804 -26.4804 13.7694 39.8389 -58.0406 0.453072 12.65 -0.0502198 -82.1596 8.09511 -5.24546 -0.568361 -29.1734 -8.30954 0.0 0.0 0.0 18.2056 -7.74545 -14.2558 -52.5583 -1.4522 7.65641 8.66967 2.28264 -1.24399 -7.29345 0.0 0.0 -0.0 0.0 -0.0 8.56101 14.8082 -15.3427 -32.4921 0.0594261 -4.91983 42.4006 -22.424 5.31013 -34.2949 0.0 0.0 0.0 0.0 0.0 
889.194054233 767.523 -1399.22928387 161.895555029 71.3798885903 -158.361304755 -0.666585 0.882106 -2.31592 -0.664188 1.02765 -2.25514 -0.704626 1.50381 -1.96992 -0.708119 1.17391 -2.1826 -22.4239 9.85306 5.96052 -22.775 16.2517 10.1086 -0.0 0.0 -0.0 3.49293 26.8073 7.52438 -22.8201 -20.6715 65.9436 0.191846 -5.42893 0.0090958 -43.6779 -3.35052 4.31212 0.234666 20.9824 9.84423 -0.0 0.0 -0.0 12.948 5.50698 -26.306 15.1155 39.79 -58.0203 0.421289 11.7883 -0.0434927 -81.9721 8.07146 -5.24884 -0.970971 -26.502 -5.03363 0.0 0.0 0.0 19.619 -6.86312 -14.5381 -51.8242 -1.38473 7.56565 10.867 6.47309 -1.54039 -8.28954 0.0 0.0 -0.0 0.0 -0.0 7.64116 13.8062 -15.1637 -32.5256 0.0609297 -4.92477 41.9084 -17.8457 5.15233 -34.6522 0.0 0.0 0.0 0.0 0.0 
878.433438236 761.549 -1391.94159192 162.446743369 70.9698193772 -158.681208387 -0.510042 0.596222 -2.41016 -0.507121 0.748335 -2.36737 -0.537436 1.25013 -2.14524 -0.54274 0.895737 -2.31565 -24.081 9.19476 6.46806 -24.3847 14.9258 10.5311 -0.0 0.0 -0.0 3.38295 25.3927 7.37706 -25.0629 -16.9175 67.6914 0.231585 -6.54454 0.0132407 -46.2112 -3.63461 4.47022 0.226621 18.6626 8.94143 -0.0 0.0 -0.0 12.7034 6.37707 -25.7908 15.8288 39.8953 -57.0732 0.516593 14.3544 -0.0650526 -81.9044 8.06291 -5.25005 -1.42153 -28.8318 -3.56961 0.0 0.0 0.0 23.4305 -6.3141 -14.5955 -34.8681 -0.17296 5.26667 11.0923 9.79544 -1.57156 -10.691 0.0 0.0 -0.0 0.0 -0.0 5.66843 10.2772 -13.8789 -32.5942 0.0640078 -4.93483 41.4583 -12.8909 5.03156 -31.8533 0.0 0.0 0.0 0.0 0.0 
880.538090233 761.549 -1380.30611347 163.553318369 69.6754978607 -159.856331131 -0.510042 0.596222 -2.41016 -0.507121 0.748335 -2.36737 -0.537436 1.25013 -2.14524 -0.54274 0.895737 -2.31565 -24.081 9.19476 6.46806 -24.3847 14.9258 10.5311 -0.0 0.0 -0.0 3.38295 25.3927 7.37706 -25.0629 -16.9175 67.6914 0.231585 -6.54454 0.0132407 -46.2112 -3.63461 4.47022 0.226621 18.6626 8.94143 -0.0 0.0 -0.0 12.7034 6.37707 -25.7908 15.8288 39.8953 -57.0732 0.516593 14.3544 -0.0650526 -81.9044 8.06291 -5.25005 -1.42153 -28.8318 -3.56961 0.0 0.0 0.0 23.4305 -6.3141 -14.5955 -34.8681 -0.17296 5.26667 11.0923 9.79544 -1.57156 -10.691 0.0 0.0 -0.0 0.0 -0.0 5.66843 10.2772 -13.8789 -32.5942 0.0640078 -4.93483 41.4583 -12.8909 5.03156 -31.8533 0.0 0.0 0.0 0.0 0.0 
